<?xml version="1.0" encoding="UTF-8" standalone="no" ?>
<svg xmlns:dc="http://purl.org/dc/elements/1.1/" xmlns:cc="http://creativecommons.org/ns#" xmlns:rdf="http://www.w3.org/1999/02/22-rdf-syntax-ns#" xmlns:svg="http://www.w3.org/2000/svg" xmlns="http://www.w3.org/2000/svg" xmlns:sodipodi="http://sodipodi.sourceforge.net/DTD/sodipodi-0.dtd"
xmlns:inkscape="http://www.inkscape.org/namespaces/inkscape" enable-background="new 0 0 300 1200" height="100" id="seatmap" inkscape:version="0.48.5 r10040" sodipodi:docname="assentos-7896cb.svg" version="1.1" width="100" x="0px" xml:space="preserve" y="0px">
   <defs id="defs3188" />
   <sodipodi:namedview bordercolor="#666666" borderopacity="1" gridtolerance="10" guidetolerance="10" id="namedview203" inkscape:current-layer="seatmap" inkscape:cx="50" inkscape:cy="50" inkscape:pageopacity="0" inkscape:pageshadow="2" inkscape:window-height="1004"
   inkscape:window-maximized="1" inkscape:window-width="1920" inkscape:window-x="-9" inkscape:window-y="-9" inkscape:zoom="7.68" objecttolerance="10" pagecolor="#ffffff" showgrid="false" />
   <metadata id="metadata3965">
      <rdf:RDF>
         <cc:Work rdf:about="">
            <dc:format>image/svg+xml</dc:format>
            <dc:type rdf:resource="http://purl.org/dc/dcmitype/StillImage" />
            <dc:title />
         </cc:Work>
      </rdf:RDF>
   </metadata>
   <defs id="sprites">
      <circle id="cadeira_padrao" r="40" />
      <rect id="cadeira_especial" rx="10" ry="10" width="80" height="80" />
      <rect id="cadeira_diferenciada" rx="10" ry="10" width="70" height="70" transform="rotate(45 50 50)" />
      <g id="namoradeira" inkscape:label="#g3607" transform="translate(-100.21201,-500)">
         <circle cx="150.21201" cy="550" d="m 190.21201,550 c 0,22.09139 -17.90861,40 -40,40 -22.09139,0 -40,-17.90861 -40,-40 0,-22.09139 17.90861,-40 40,-40 22.09139,0 40,17.90861 40,40 z" id="circle3609" r="40" sodipodi:cx="150.21201" sodipodi:cy="550" sodipodi:rx="40" sodipodi:ry="40" />
         <g id="g3611">
            <g id="g3613">
               <path d="m 150.633,580 c -0.424,0 -0.856,-0.106 -1.244,-0.319 -0.113,-0.062 -0.222,-0.139 -0.326,-0.216 l -0.799,-0.554 c -1.909,-1.33 -6.379,-4.438 -9.34,-6.729 -11.36,-8.844 -17.164,-15.22 -18.269,-20.07 -0.529,-1.602 -0.842,-3.53 -0.866,-5.515 -0.066,-5.268 1.92,-10.353 5.458,-13.949 3.222,-3.276 7.45,-5.094 11.905,-5.109 h 0.004 c 5.023,0 9.596,2.034 12.887,5.574 3.236,-3.67 7.803,-5.816 12.768,-5.887 l 0.332,-0.002 c 9.518,0 17.361,8.352 17.494,18.61 0.025,1.979 -0.24,3.914 -0.783,5.759 -0.924,4.65 -6.717,11.376 -17.662,20.342 -4.207,3.47 -7.635,6.049 -10.18,7.662 -0.416,0.268 -0.901,0.403 -1.379,0.403 l 0,0 z m -13.297,-47.312 c -3.235,0.015 -6.163,1.28 -8.414,3.571 -2.583,2.624 -4.035,6.37 -3.982,10.275 0.019,1.466 0.246,2.881 0.676,4.209 0.515,2.21 3.245,7.082 16.468,17.372 2.606,2.015 6.501,4.742 8.587,6.189 2.19,-1.511 5.007,-3.674 8.246,-6.35 12.921,-10.582 15.532,-15.566 15.94,-17.6 0.453,-1.573 0.646,-2.996 0.627,-4.457 -0.096,-7.458 -5.631,-13.524 -12.344,-13.524 -0.012,0 -0.257,0.002 -0.257,0.002 -4.38,0.061 -8.319,2.43 -10.549,6.342 -0.448,0.795 -1.286,1.289 -2.205,1.304 -0.856,-0.005 -1.764,-0.461 -2.238,-1.243 -2.298,-3.812 -6.247,-6.09 -10.555,-6.09 l 0,0 z"
               id="path3615" inkscape:connector-curvature="0" style="fill:#ffffff" />
            </g>
         </g>
      </g>
      <g id="namoradeira_esq" inkscape:label="#g3627" transform="translate(-100,-800)">
         <path d="m 149.838,810 c -22.092,0 -40,17.908 -40,40 0,22.092 17.909,40 40,40 H 200 v -80 h -50.162 z" id="path3629" inkscape:connector-curvature="0" />
         <g id="g3631">
            <g id="g3633">
               <path d="m 150.633,880 c -0.424,0 -0.856,-0.106 -1.244,-0.319 -0.113,-0.062 -0.222,-0.139 -0.326,-0.216 l -0.799,-0.554 c -1.909,-1.33 -6.379,-4.438 -9.34,-6.729 -11.36,-8.844 -17.164,-15.22 -18.269,-20.07 -0.529,-1.602 -0.842,-3.53 -0.866,-5.515 -0.066,-5.268 1.92,-10.353 5.458,-13.949 3.222,-3.276 7.45,-5.094 11.905,-5.109 h 0.004 c 5.023,0 9.596,2.034 12.887,5.574 3.236,-3.67 7.803,-5.816 12.768,-5.887 l 0.332,-0.002 c 9.518,0 17.361,8.352 17.494,18.61 0.025,1.979 -0.24,3.914 -0.783,5.759 -0.924,4.65 -6.717,11.376 -17.662,20.342 -4.207,3.47 -7.635,6.049 -10.18,7.662 -0.416,0.268 -0.901,0.403 -1.379,0.403 l 0,0 z m -13.297,-47.312 c -3.235,0.015 -6.163,1.28 -8.414,3.571 -2.583,2.624 -4.035,6.37 -3.982,10.275 0.019,1.466 0.246,2.881 0.676,4.209 0.515,2.21 3.245,7.082 16.468,17.372 2.606,2.015 6.501,4.742 8.587,6.189 2.19,-1.511 5.007,-3.674 8.246,-6.35 12.921,-10.582 15.532,-15.566 15.94,-17.6 0.453,-1.573 0.646,-2.996 0.627,-4.457 -0.096,-7.458 -5.631,-13.524 -12.344,-13.524 -0.012,0 -0.257,0.002 -0.257,0.002 -4.38,0.061 -8.319,2.43 -10.549,6.342 -0.448,0.795 -1.286,1.289 -2.205,1.304 -0.856,-0.005 -1.764,-0.461 -2.238,-1.243 -2.298,-3.812 -6.247,-6.09 -10.555,-6.09 l 0,0 z"
               id="path3635" inkscape:connector-curvature="0" style="fill:#ffffff" />
            </g>
         </g>
      </g>
      <g id="namoradeira_dir" inkscape:label="#g3647" transform="translate(-99.677,-900)">
         <path d="M 152.059,910.052 C 151.376,910.018 150.689,910 150,910 c -0.054,0 -0.107,0.004 -0.161,0.004 V 910 H 99.677 v 80 h 50.162 v -0.004 c 0.054,0 0.107,0.004 0.161,0.004 0.689,0 1.376,-0.018 2.059,-0.052 C 173.193,988.877 190,971.401 190,950 c 0,-21.401 -16.807,-38.877 -37.941,-39.948 z"
         id="path3649" inkscape:connector-curvature="0" />
         <g id="g3651">
            <g id="g3653">
               <path d="m 150.633,979.671 c -0.424,0 -0.856,-0.104 -1.244,-0.319 -0.113,-0.062 -0.222,-0.139 -0.326,-0.216 l -0.799,-0.554 c -1.909,-1.33 -6.379,-4.438 -9.34,-6.727 -11.36,-8.846 -17.164,-15.222 -18.269,-20.072 -0.529,-1.602 -0.842,-3.53 -0.866,-5.514 -0.066,-5.269 1.92,-10.354 5.458,-13.95 3.222,-3.276 7.45,-5.094 11.905,-5.109 h 0.004 c 5.023,0 9.596,2.034 12.887,5.574 3.236,-3.67 7.803,-5.816 12.768,-5.885 l 0.332,-0.003 c 9.518,0 17.361,8.351 17.494,18.609 0.025,1.979 -0.24,3.914 -0.783,5.759 -0.924,4.65 -6.717,11.376 -17.662,20.343 -4.207,3.469 -7.635,6.049 -10.18,7.661 -0.416,0.268 -0.901,0.403 -1.379,0.403 l 0,0 z m -13.297,-47.312 c -3.235,0.013 -6.163,1.278 -8.414,3.569 -2.583,2.624 -4.035,6.37 -3.982,10.275 0.019,1.466 0.246,2.881 0.676,4.209 0.515,2.21 3.245,7.082 16.468,17.372 2.606,2.015 6.501,4.742 8.587,6.189 2.19,-1.511 5.007,-3.674 8.246,-6.35 12.921,-10.582 15.532,-15.566 15.94,-17.6 0.453,-1.573 0.646,-2.996 0.627,-4.457 -0.096,-7.458 -5.631,-13.524 -12.344,-13.524 -0.012,0 -0.257,0.002 -0.257,0.002 -4.38,0.061 -8.319,2.432 -10.549,6.342 -0.448,0.797 -1.286,1.289 -2.205,1.304 -0.856,-0.003 -1.764,-0.46 -2.238,-1.243 -2.298,-3.81 -6.247,-6.088 -10.555,-6.088 l 0,0 z"
               id="path3655" inkscape:connector-curvature="0" style="fill:#ffffff" />
            </g>
         </g>
      </g>
      <g id="puff" inkscape:label="#g3647" transform="translate(0, 20)">
         <rect id="cadeira_diferenciada" rx="10" ry="10" width="70" height="70" transform="rotate(45 50 50)" />
         <g id="g3681" transform="scale(2.2, 2.2) translate(7, -4.5)">
           <path id="path3658" inkscape:connector-curvature="0" style="fill:#fff" d="M7.485 17.476c2.826 2.803 7.307 3.835 11.1 2.959 2.168-.501 4.159-1.587 5.924-2.926.827-.628.016-2.053-.823-1.416-3.15 2.389-6.975 3.751-10.872 2.57a11.46 11.46 0 0 1-3.117-1.505c-.484-.33-.635-.422-1.059-.842-.748-.742-1.901.418-1.153 1.16"/>
           <path id="path3658" inkscape:connector-curvature="0" style="fill:#fff" d="M11.174 18.595c.062-.062.129-.12.195-.177.05-.042.294-.234.155-.128.103-.078.208-.154.315-.227a7.89 7.89 0 0 1 2.163-1.058c2.707-.825 5.328.134 7.52 1.785.84.633 1.654-.79.823-1.416-2.488-1.875-5.581-2.87-8.647-1.99-1.32.38-2.687 1.072-3.677 2.05-.75.742.403 1.902 1.153 1.161"/>
           <path id="path3658" inkscape:connector-curvature="0" style="fill:#fff" d="M26.1 18.064l-.18 2.225a4.118 4.118 0 0 1-2.654 3.6c-6.426 2.428-11.507 1.261-14.301.13a4.349 4.349 0 0 1-2.672-3.472l-.212-1.226c-1.046-3.291 1.08-5.277 1.531-5.653-.056-1.345.347-4.137 4.63-4.306a6.76 6.76 0 0 1 .708.005c2.593-2.575 4.857-1.854 6.79-.089 1.265-.139 4.453-.047 4.808 4.324l-.032-.025.014.02c.467.403 1.892 1.955 1.56 4.47l.01-.003zm-.06-4.98c-.004-.008-.01-.016-.015-.023l.037.029c-.417-5.141-4.168-5.25-5.656-5.087-2.275-2.076-4.938-2.924-7.99.105a7.932 7.932 0 0 0-.832-.005c-5.038.198-5.513 3.483-5.446 5.065-.531.443-3.032 2.779-1.802 6.65l.25 1.443a5.117 5.117 0 0 0 3.143 4.084c3.287 1.332 9.266 2.705 16.825-.153a4.845 4.845 0 0 0 3.123-4.235l.21-2.617-.01.003c.39-2.959-1.286-4.785-1.836-5.26z"/>
         </g>
      </g>

      <g id="cadeira-cns">
        <path fill-rule="evenodd" d="M1.517 18.275L3.93 2.286A1.53 1.53 0 0 1 5.455 1H16.73c.771 0 1.424.557 1.528 1.302l2.229 15.99c.125.903-.594 1.708-1.53 1.708H3.044c-.941 0-1.663-.816-1.526-1.725"/>
      </g>

   </defs>
   <g id="canvas" />
</svg>
